<svg height="128" width="128" viewBox="0 0 29 29"><path fill="#FFFFFF" d="M0,0 h29v29H0z" shape-rendering="crispEdges"></path><path fill="#000000" d="M0 0h7v1H0zM9 0h1v1H9zM12 0h4v1H12zM17 0h4v1H17zM22,0 h7v1H22zM0 1h1v1H0zM6 1h1v1H6zM10 1h1v1H10zM13 1h4v1H13zM20 1h1v1H20zM22 1h1v1H22zM28,1 h1v1H28zM0 2h1v1H0zM2 2h3v1H2zM6 2h1v1H6zM8 2h1v1H8zM13 2h1v1H13zM15 2h1v1H15zM18 2h1v1H18zM22 2h1v1H22zM24 2h3v1H24zM28,2 h1v1H28zM0 3h1v1H0zM2 3h3v1H2zM6 3h1v1H6zM8 3h2v1H8zM14 3h2v1H14zM17 3h1v1H17zM19 3h1v1H19zM22 3h1v1H22zM24 3h3v1H24zM28,3 h1v1H28zM0 4h1v1H0zM2 4h3v1H2zM6 4h1v1H6zM8 4h2v1H8zM11 4h2v1H11zM15 4h2v1H15zM18 4h3v1H18zM22 4h1v1H22zM24 4h3v1H24zM28,4 h1v1H28zM0 5h1v1H0zM6 5h1v1H6zM8 5h1v1H8zM10 5h3v1H10zM17 5h1v1H17zM20 5h1v1H20zM22 5h1v1H22zM28,5 h1v1H28zM0 6h7v1H0zM8 6h1v1H8zM10 6h1v1H10zM12 6h1v1H12zM14 6h1v1H14zM16 6h1v1H16zM18 6h1v1H18zM20 6h1v1H20zM22,6 h7v1H22zM8 7h2v1H8zM12 7h1v1H12zM14 7h1v1H14zM16 7h1v1H16zM18 7h3v1H18zM0 8h1v1H0zM2 8h5v1H2zM12 8h1v1H12zM17 8h1v1H17zM20 8h1v1H20zM22 8h5v1H22zM3 9h2v1H3zM7 9h1v1H7zM11 9h5v1H11zM20 9h5v1H20zM28,9 h1v1H28zM3 10h2v1H3zM6 10h2v1H6zM10 10h1v1H10zM13 10h3v1H13zM17 10h2v1H17zM21 10h1v1H21zM23 10h1v1H23zM25 10h1v1H25zM27 10h1v1H27zM1 11h3v1H1zM7 11h3v1H7zM13 11h1v1H13zM16 11h1v1H16zM18 11h1v1H18zM24 11h1v1H24zM27,11 h2v1H27zM0 12h8v1H0zM10 12h3v1H10zM14 12h1v1H14zM17 12h1v1H17zM24 12h1v1H24zM26 12h2v1H26zM1 13h1v1H1zM4 13h2v1H4zM9 13h2v1H9zM16 13h1v1H16zM18 13h2v1H18zM22 13h5v1H22zM28,13 h1v1H28zM0 14h13v1H0zM15 14h2v1H15zM23 14h3v1H23zM27 14h1v1H27zM0 15h1v1H0zM2 15h1v1H2zM4 15h2v1H4zM10 15h1v1H10zM14 15h1v1H14zM16 15h1v1H16zM20 15h2v1H20zM23 15h1v1H23zM27 15h1v1H27zM0 16h1v1H0zM3 16h5v1H3zM9 16h3v1H9zM17 16h1v1H17zM19 16h1v1H19zM25 16h3v1H25zM0 17h3v1H0zM4 17h1v1H4zM7 17h2v1H7zM10 17h1v1H10zM13 17h2v1H13zM16 17h1v1H16zM18 17h2v1H18zM21 17h2v1H21zM24 17h1v1H24zM28,17 h1v1H28zM0 18h1v1H0zM4 18h5v1H4zM11 18h1v1H11zM13 18h4v1H13zM21 18h1v1H21zM23 18h2v1H23zM27 18h1v1H27zM0 19h1v1H0zM2 19h1v1H2zM7 19h1v1H7zM10 19h1v1H10zM13 19h1v1H13zM15 19h2v1H15zM18 19h3v1H18zM24 19h1v1H24zM27,19 h2v1H27zM0 20h1v1H0zM3 20h2v1H3zM6 20h1v1H6zM10 20h3v1H10zM14 20h1v1H14zM17 20h1v1H17zM19 20h9v1H19zM8 21h1v1H8zM16 21h3v1H16zM20 21h1v1H20zM24 21h1v1H24zM28,21 h1v1H28zM0 22h7v1H0zM9 22h2v1H9zM12 22h1v1H12zM15 22h3v1H15zM19 22h2v1H19zM22 22h1v1H22zM24 22h2v1H24zM27 22h1v1H27zM0 23h1v1H0zM6 23h1v1H6zM8 23h1v1H8zM10 23h3v1H10zM14 23h3v1H14zM19 23h2v1H19zM24 23h1v1H24zM27,23 h2v1H27zM0 24h1v1H0zM2 24h3v1H2zM6 24h1v1H6zM8 24h1v1H8zM11 24h2v1H11zM15 24h4v1H15zM20 24h8v1H20zM0 25h1v1H0zM2 25h3v1H2zM6 25h1v1H6zM8 25h1v1H8zM14 25h1v1H14zM16 25h1v1H16zM18 25h2v1H18zM23 25h1v1H23zM27,25 h2v1H27zM0 26h1v1H0zM2 26h3v1H2zM6 26h1v1H6zM8 26h1v1H8zM11 26h1v1H11zM14 26h2v1H14zM18 26h1v1H18zM21 26h2v1H21zM24 26h1v1H24zM27 26h1v1H27zM0 27h1v1H0zM6 27h1v1H6zM9 27h1v1H9zM12 27h1v1H12zM14 27h3v1H14zM18 27h1v1H18zM20 27h1v1H20zM22 27h3v1H22zM27 27h1v1H27zM0 28h7v1H0zM8 28h1v1H8zM10 28h1v1H10zM12 28h2v1H12zM15 28h1v1H15zM19 28h1v1H19zM21 28h1v1H21zM25 28h2v1H25z" shape-rendering="crispEdges"></path></svg>