<svg height="128" width="128" viewBox="0 0 21 21"><path fill="#FFFFFF" d="M0,0 h21v21H0z" shape-rendering="crispEdges"></path><path fill="#000000" d="M0 0h7v1H0zM9 0h1v1H9zM12 0h1v1H12zM14,0 h7v1H14zM0 1h1v1H0zM6 1h1v1H6zM8 1h5v1H8zM14 1h1v1H14zM20,1 h1v1H20zM0 2h1v1H0zM2 2h3v1H2zM6 2h1v1H6zM8 2h3v1H8zM14 2h1v1H14zM16 2h3v1H16zM20,2 h1v1H20zM0 3h1v1H0zM2 3h3v1H2zM6 3h1v1H6zM8 3h1v1H8zM12 3h1v1H12zM14 3h1v1H14zM16 3h3v1H16zM20,3 h1v1H20zM0 4h1v1H0zM2 4h3v1H2zM6 4h1v1H6zM8 4h5v1H8zM14 4h1v1H14zM16 4h3v1H16zM20,4 h1v1H20zM0 5h1v1H0zM6 5h1v1H6zM8 5h1v1H8zM10 5h3v1H10zM14 5h1v1H14zM20,5 h1v1H20zM0 6h7v1H0zM8 6h1v1H8zM10 6h1v1H10zM12 6h1v1H12zM14,6 h7v1H14zM9 7h1v1H9zM11 7h2v1H11zM2 8h1v1H2zM5 8h4v1H5zM10 8h1v1H10zM13 8h1v1H13zM15 8h5v1H15zM2 9h4v1H2zM9 9h1v1H9zM13 9h1v1H13zM20,9 h1v1H20zM1 10h4v1H1zM6 10h1v1H6zM8 10h2v1H8zM11 10h1v1H11zM13 10h7v1H13zM1 11h1v1H1zM3 11h3v1H3zM8 11h1v1H8zM10 11h1v1H10zM15 11h1v1H15zM18 11h2v1H18zM0 12h4v1H0zM5 12h2v1H5zM8 12h3v1H8zM12 12h1v1H12zM14 12h1v1H14zM16 12h1v1H16zM20,12 h1v1H20zM8 13h1v1H8zM10 13h3v1H10zM14 13h2v1H14zM17 13h1v1H17zM0 14h7v1H0zM8 14h3v1H8zM14 14h3v1H14zM19,14 h2v1H19zM0 15h1v1H0zM6 15h1v1H6zM8 15h1v1H8zM11 15h2v1H11zM15 15h1v1H15zM17 15h3v1H17zM0 16h1v1H0zM2 16h3v1H2zM6 16h1v1H6zM9 16h1v1H9zM14 16h2v1H14zM17 16h2v1H17zM20,16 h1v1H20zM0 17h1v1H0zM2 17h3v1H2zM6 17h1v1H6zM9 17h1v1H9zM12 17h1v1H12zM14 17h1v1H14zM16 17h3v1H16zM0 18h1v1H0zM2 18h3v1H2zM6 18h1v1H6zM8 18h2v1H8zM14 18h1v1H14zM16 18h1v1H16zM18,18 h3v1H18zM0 19h1v1H0zM6 19h1v1H6zM11 19h1v1H11zM14 19h1v1H14zM17 19h1v1H17zM20,19 h1v1H20zM0 20h7v1H0zM11 20h4v1H11zM16,20 h5v1H16z" shape-rendering="crispEdges"></path></svg>